<mxfile host="Electron" agent="Mozilla/5.0 (X11; Linux x86_64) AppleWebKit/537.36 (KHTML, like Gecko) draw.io/25.0.2 Chrome/128.0.6613.186 Electron/32.2.5 Safari/537.36" version="25.0.2">
  <diagram name="Page-1" id="G_x50jS-bO-VXF3seFGt">
    <mxGraphModel dx="1364" dy="-137" grid="1" gridSize="10" guides="1" tooltips="1" connect="1" arrows="1" fold="1" page="1" pageScale="1" pageWidth="850" pageHeight="1100" math="0" shadow="0">
      <root>
        <mxCell id="0" />
        <mxCell id="1" parent="0" />
        <mxCell id="BVVgadhTMY7ZQkgNNVCp-1" value="google_adapter" style="shape=module;align=left;spacingLeft=20;align=center;verticalAlign=top;whiteSpace=wrap;html=1;" vertex="1" parent="1">
          <mxGeometry x="132" y="2200" width="210" height="116" as="geometry" />
        </mxCell>
        <mxCell id="BVVgadhTMY7ZQkgNNVCp-2" value="Client" style="swimlane;fontStyle=1;align=center;verticalAlign=top;childLayout=stackLayout;horizontal=1;startSize=26;horizontalStack=0;resizeParent=1;resizeParentMax=0;resizeLast=0;collapsible=1;marginBottom=0;whiteSpace=wrap;html=1;" vertex="1" parent="1">
          <mxGeometry x="48" y="1954" width="160" height="50" as="geometry" />
        </mxCell>
        <mxCell id="BVVgadhTMY7ZQkgNNVCp-3" value="google" style="shape=module;align=left;spacingLeft=20;align=center;verticalAlign=top;whiteSpace=wrap;html=1;" vertex="1" parent="1">
          <mxGeometry x="134" y="2370" width="190" height="100" as="geometry" />
        </mxCell>
        <mxCell id="BVVgadhTMY7ZQkgNNVCp-4" value="TextToSpeech" style="swimlane;fontStyle=1;align=center;verticalAlign=top;childLayout=stackLayout;horizontal=1;startSize=26;horizontalStack=0;resizeParent=1;resizeParentMax=0;resizeLast=0;collapsible=1;marginBottom=0;whiteSpace=wrap;html=1;" vertex="1" parent="1">
          <mxGeometry x="164" y="2400" width="126" height="52" as="geometry" />
        </mxCell>
        <mxCell id="BVVgadhTMY7ZQkgNNVCp-5" value="" style="text;strokeColor=#b85450;fillColor=#f8cecc;align=left;verticalAlign=top;spacingLeft=4;spacingRight=4;overflow=hidden;rotatable=0;points=[[0,0.5],[1,0.5]];portConstraint=eastwest;whiteSpace=wrap;html=1;" vertex="1" parent="BVVgadhTMY7ZQkgNNVCp-4">
          <mxGeometry y="26" width="126" height="26" as="geometry" />
        </mxCell>
        <mxCell id="BVVgadhTMY7ZQkgNNVCp-15" value="ITTSService" style="swimlane;fontStyle=3;align=center;verticalAlign=top;childLayout=stackLayout;horizontal=1;startSize=26;horizontalStack=0;resizeParent=1;resizeParentMax=0;resizeLast=0;collapsible=1;marginBottom=0;whiteSpace=wrap;html=1;" vertex="1" parent="1">
          <mxGeometry x="41" y="2080" width="174" height="52" as="geometry" />
        </mxCell>
        <mxCell id="BVVgadhTMY7ZQkgNNVCp-16" value="+TextToSpeech(text):Speech" style="text;strokeColor=#36393d;fillColor=#ffff88;align=left;verticalAlign=top;spacingLeft=4;spacingRight=4;overflow=hidden;rotatable=0;points=[[0,0.5],[1,0.5]];portConstraint=eastwest;whiteSpace=wrap;html=1;" vertex="1" parent="BVVgadhTMY7ZQkgNNVCp-15">
          <mxGeometry y="26" width="174" height="26" as="geometry" />
        </mxCell>
        <mxCell id="BVVgadhTMY7ZQkgNNVCp-17" value="" style="endArrow=open;endSize=12;dashed=1;html=1;rounded=0;" edge="1" parent="1" source="BVVgadhTMY7ZQkgNNVCp-2" target="BVVgadhTMY7ZQkgNNVCp-15">
          <mxGeometry width="160" relative="1" as="geometry">
            <mxPoint x="710" y="2280" as="sourcePoint" />
            <mxPoint x="870" y="2280" as="targetPoint" />
          </mxGeometry>
        </mxCell>
        <mxCell id="BVVgadhTMY7ZQkgNNVCp-18" value="GoogleTTSAdapter" style="swimlane;fontStyle=1;align=center;verticalAlign=top;childLayout=stackLayout;horizontal=1;startSize=26;horizontalStack=0;resizeParent=1;resizeParentMax=0;resizeLast=0;collapsible=1;marginBottom=0;whiteSpace=wrap;html=1;" vertex="1" parent="1">
          <mxGeometry x="172" y="2246" width="146" height="52" as="geometry" />
        </mxCell>
        <mxCell id="BVVgadhTMY7ZQkgNNVCp-19" value="" style="text;strokeColor=#b85450;fillColor=#f8cecc;align=left;verticalAlign=top;spacingLeft=4;spacingRight=4;overflow=hidden;rotatable=0;points=[[0,0.5],[1,0.5]];portConstraint=eastwest;whiteSpace=wrap;html=1;" vertex="1" parent="BVVgadhTMY7ZQkgNNVCp-18">
          <mxGeometry y="26" width="146" height="26" as="geometry" />
        </mxCell>
        <mxCell id="BVVgadhTMY7ZQkgNNVCp-20" value="" style="endArrow=block;dashed=1;endFill=0;endSize=12;html=1;rounded=0;" edge="1" parent="1" source="BVVgadhTMY7ZQkgNNVCp-18" target="BVVgadhTMY7ZQkgNNVCp-15">
          <mxGeometry width="160" relative="1" as="geometry">
            <mxPoint x="90" y="2170" as="sourcePoint" />
            <mxPoint x="250" y="2170" as="targetPoint" />
          </mxGeometry>
        </mxCell>
        <mxCell id="BVVgadhTMY7ZQkgNNVCp-21" value="" style="endArrow=diamondThin;endFill=0;endSize=24;html=1;rounded=0;" edge="1" parent="1" source="BVVgadhTMY7ZQkgNNVCp-4" target="BVVgadhTMY7ZQkgNNVCp-18">
          <mxGeometry width="160" relative="1" as="geometry">
            <mxPoint x="114" y="2110" as="sourcePoint" />
            <mxPoint x="274" y="2110" as="targetPoint" />
          </mxGeometry>
        </mxCell>
        <mxCell id="BVVgadhTMY7ZQkgNNVCp-37" value="ITTSServiceProvider" style="swimlane;fontStyle=3;align=center;verticalAlign=top;childLayout=stackLayout;horizontal=1;startSize=26;horizontalStack=0;resizeParent=1;resizeParentMax=0;resizeLast=0;collapsible=1;marginBottom=0;whiteSpace=wrap;html=1;fillColor=#ffcccc;strokeColor=#36393d;" vertex="1" parent="1">
          <mxGeometry x="445" y="1940" width="325" height="78" as="geometry" />
        </mxCell>
        <mxCell id="BVVgadhTMY7ZQkgNNVCp-38" value="+GetVoices():[Voice]" style="text;strokeColor=#36393d;fillColor=none;align=left;verticalAlign=top;spacingLeft=4;spacingRight=4;overflow=hidden;rotatable=0;points=[[0,0.5],[1,0.5]];portConstraint=eastwest;whiteSpace=wrap;html=1;fontStyle=2" vertex="1" parent="BVVgadhTMY7ZQkgNNVCp-37">
          <mxGeometry y="26" width="325" height="26" as="geometry" />
        </mxCell>
        <mxCell id="BVVgadhTMY7ZQkgNNVCp-39" value="+GetServiceForVoice(id, langId):ITTSService" style="text;strokeColor=#36393d;fillColor=none;align=left;verticalAlign=top;spacingLeft=4;spacingRight=4;overflow=hidden;rotatable=0;points=[[0,0.5],[1,0.5]];portConstraint=eastwest;whiteSpace=wrap;html=1;fontStyle=2" vertex="1" parent="BVVgadhTMY7ZQkgNNVCp-37">
          <mxGeometry y="52" width="325" height="26" as="geometry" />
        </mxCell>
        <mxCell id="BVVgadhTMY7ZQkgNNVCp-40" value="TTSServiceProvider" style="swimlane;fontStyle=1;align=center;verticalAlign=top;childLayout=stackLayout;horizontal=1;startSize=26;horizontalStack=0;resizeParent=1;resizeParentMax=0;resizeLast=0;collapsible=1;marginBottom=0;whiteSpace=wrap;html=1;fillColor=#ffcccc;strokeColor=#36393d;" vertex="1" parent="1">
          <mxGeometry x="310" y="2100" width="160" height="52" as="geometry" />
        </mxCell>
        <mxCell id="BVVgadhTMY7ZQkgNNVCp-41" value="Voice" style="swimlane;fontStyle=1;align=center;verticalAlign=top;childLayout=stackLayout;horizontal=1;startSize=26;horizontalStack=0;resizeParent=1;resizeParentMax=0;resizeLast=0;collapsible=1;marginBottom=0;whiteSpace=wrap;html=1;" vertex="1" parent="1">
          <mxGeometry x="650" y="2064" width="160" height="104" as="geometry" />
        </mxCell>
        <mxCell id="BVVgadhTMY7ZQkgNNVCp-42" value="+id:string" style="text;strokeColor=none;fillColor=none;align=left;verticalAlign=top;spacingLeft=4;spacingRight=4;overflow=hidden;rotatable=0;points=[[0,0.5],[1,0.5]];portConstraint=eastwest;whiteSpace=wrap;html=1;" vertex="1" parent="BVVgadhTMY7ZQkgNNVCp-41">
          <mxGeometry y="26" width="160" height="26" as="geometry" />
        </mxCell>
        <mxCell id="BVVgadhTMY7ZQkgNNVCp-43" value="+name:string" style="text;strokeColor=none;fillColor=none;align=left;verticalAlign=top;spacingLeft=4;spacingRight=4;overflow=hidden;rotatable=0;points=[[0,0.5],[1,0.5]];portConstraint=eastwest;whiteSpace=wrap;html=1;" vertex="1" parent="BVVgadhTMY7ZQkgNNVCp-41">
          <mxGeometry y="52" width="160" height="26" as="geometry" />
        </mxCell>
        <mxCell id="BVVgadhTMY7ZQkgNNVCp-44" value="+languages:[string]" style="text;strokeColor=none;fillColor=none;align=left;verticalAlign=top;spacingLeft=4;spacingRight=4;overflow=hidden;rotatable=0;points=[[0,0.5],[1,0.5]];portConstraint=eastwest;whiteSpace=wrap;html=1;" vertex="1" parent="BVVgadhTMY7ZQkgNNVCp-41">
          <mxGeometry y="78" width="160" height="26" as="geometry" />
        </mxCell>
        <mxCell id="BVVgadhTMY7ZQkgNNVCp-45" value="" style="endArrow=block;dashed=1;endFill=0;endSize=12;html=1;rounded=0;" edge="1" parent="1" source="BVVgadhTMY7ZQkgNNVCp-40" target="BVVgadhTMY7ZQkgNNVCp-37">
          <mxGeometry width="160" relative="1" as="geometry">
            <mxPoint x="660" y="2240" as="sourcePoint" />
            <mxPoint x="820" y="2240" as="targetPoint" />
          </mxGeometry>
        </mxCell>
        <mxCell id="BVVgadhTMY7ZQkgNNVCp-49" value="" style="endArrow=open;endSize=12;dashed=1;html=1;rounded=0;" edge="1" parent="1" source="BVVgadhTMY7ZQkgNNVCp-40" target="BVVgadhTMY7ZQkgNNVCp-18">
          <mxGeometry width="160" relative="1" as="geometry">
            <mxPoint x="910" y="2330" as="sourcePoint" />
            <mxPoint x="1070" y="2330" as="targetPoint" />
          </mxGeometry>
        </mxCell>
        <mxCell id="BVVgadhTMY7ZQkgNNVCp-50" value="" style="endArrow=open;endSize=12;dashed=1;html=1;rounded=0;" edge="1" parent="1" source="BVVgadhTMY7ZQkgNNVCp-2" target="BVVgadhTMY7ZQkgNNVCp-37">
          <mxGeometry width="160" relative="1" as="geometry">
            <mxPoint x="710" y="2280" as="sourcePoint" />
            <mxPoint x="870" y="2280" as="targetPoint" />
          </mxGeometry>
        </mxCell>
        <mxCell id="BVVgadhTMY7ZQkgNNVCp-51" value="" style="endArrow=open;endSize=12;dashed=1;html=1;rounded=0;" edge="1" parent="1" source="BVVgadhTMY7ZQkgNNVCp-2" target="BVVgadhTMY7ZQkgNNVCp-41">
          <mxGeometry width="160" relative="1" as="geometry">
            <mxPoint x="710" y="2280" as="sourcePoint" />
            <mxPoint x="870" y="2280" as="targetPoint" />
          </mxGeometry>
        </mxCell>
        <mxCell id="BVVgadhTMY7ZQkgNNVCp-52" value="" style="endArrow=open;endSize=12;dashed=1;html=1;rounded=0;" edge="1" parent="1" source="BVVgadhTMY7ZQkgNNVCp-37" target="BVVgadhTMY7ZQkgNNVCp-41">
          <mxGeometry width="160" relative="1" as="geometry">
            <mxPoint x="710" y="2280" as="sourcePoint" />
            <mxPoint x="870" y="2280" as="targetPoint" />
          </mxGeometry>
        </mxCell>
        <mxCell id="BVVgadhTMY7ZQkgNNVCp-53" value="" style="endArrow=open;endSize=12;dashed=1;html=1;rounded=0;" edge="1" parent="1" source="BVVgadhTMY7ZQkgNNVCp-40" target="BVVgadhTMY7ZQkgNNVCp-41">
          <mxGeometry width="160" relative="1" as="geometry">
            <mxPoint x="710" y="2280" as="sourcePoint" />
            <mxPoint x="870" y="2280" as="targetPoint" />
          </mxGeometry>
        </mxCell>
        <mxCell id="BVVgadhTMY7ZQkgNNVCp-57" value="" style="endArrow=open;endSize=12;dashed=1;html=1;rounded=0;edgeStyle=orthogonalEdgeStyle;" edge="1" parent="1" source="BVVgadhTMY7ZQkgNNVCp-40" target="BVVgadhTMY7ZQkgNNVCp-4">
          <mxGeometry width="160" relative="1" as="geometry">
            <mxPoint x="910" y="2330" as="sourcePoint" />
            <mxPoint x="1070" y="2330" as="targetPoint" />
            <Array as="points">
              <mxPoint x="460" y="2410" />
            </Array>
          </mxGeometry>
        </mxCell>
        <mxCell id="BVVgadhTMY7ZQkgNNVCp-58" value="" style="endArrow=open;endSize=12;dashed=1;html=1;rounded=0;" edge="1" parent="1" source="BVVgadhTMY7ZQkgNNVCp-37" target="BVVgadhTMY7ZQkgNNVCp-15">
          <mxGeometry width="160" relative="1" as="geometry">
            <mxPoint x="710" y="2280" as="sourcePoint" />
            <mxPoint x="870" y="2280" as="targetPoint" />
          </mxGeometry>
        </mxCell>
      </root>
    </mxGraphModel>
  </diagram>
</mxfile>
